<svg width="761" height="201" viewBox="0 0 761 201" fill="none" xmlns="http://www.w3.org/2000/svg">
<path d="M601.766 116.327C593.482 101.979 598.398 83.631 612.747 75.3467L671.176 41.613C685.524 33.3287 703.872 38.245 712.156 52.5938L745.89 111.022C754.174 125.371 749.258 143.719 734.909 152.003L676.481 185.737C662.132 194.021 643.784 189.105 635.5 174.756L601.766 116.327Z" fill="#EC5863"/>
<rect y="142.807" width="65.7521" height="65.7521" rx="16" transform="rotate(-30 0 142.807)" fill="#EC5863"/>
<path d="M330.024 17.3296C346.028 21.6179 355.525 38.068 351.237 54.072L341.672 89.7691C337.384 105.773 320.934 115.271 304.93 110.982L269.233 101.417C253.229 97.129 243.731 80.6789 248.019 64.6749L257.584 28.9778C261.873 12.9738 278.323 3.47633 294.327 7.76458L330.024 17.3296Z" fill="#EC5863"/>
</svg>
